<?xml version="1.0" encoding="UTF-8" standalone="no"?>
<!-- Generator: Adobe Illustrator 19.2.0, SVG Export Plug-In . SVG Version: 6.00 Build 0)  -->

<svg
   version="1.1"
   id="Layer_1"
   x="0px"
   y="0px"
   viewBox="0 0 200 106.8"
   style="enable-background:new 0 0 200 106.8;"
   xml:space="preserve"
   sodipodi:docname="moto-logo-1.svg"
   inkscape:version="1.1.2 (0a00cf5339, 2022-02-04, custom)"
   xmlns:inkscape="http://www.inkscape.org/namespaces/inkscape"
   xmlns:sodipodi="http://sodipodi.sourceforge.net/DTD/sodipodi-0.dtd"
   xmlns="http://www.w3.org/2000/svg"
   xmlns:svg="http://www.w3.org/2000/svg"><defs
   id="defs37" /><sodipodi:namedview
   id="namedview35"
   pagecolor="#ffffff"
   bordercolor="#666666"
   borderopacity="1.0"
   inkscape:pageshadow="2"
   inkscape:pageopacity="0.0"
   inkscape:pagecheckerboard="0"
   showgrid="false"
   inkscape:zoom="6.59"
   inkscape:cx="100"
   inkscape:cy="113.96055"
   inkscape:window-width="1920"
   inkscape:window-height="1031"
   inkscape:window-x="0"
   inkscape:window-y="24"
   inkscape:window-maximized="1"
   inkscape:current-layer="Layer_1" />
<style
   type="text/css"
   id="style2">
	.st0{fill:none;stroke:#ED4444;stroke-width:2;stroke-miterlimit:10;}
	.st1{fill:#1E1330;}
</style>
<g
   id="g32">
	<path
   class="st0"
   d="M67,2.8v67.9h67.9V2.8H67z M87,55.9h-5.2V17.6l5.2,5.2V55.9z M120,55.9l-5.2-5.2V25.4L102.2,38l-3.7-3.7   l16.2-16.2l5.3,0V55.9z"
   id="path4" />
	<g
   id="g30">
		<path
   class="st1"
   d="M17.5,85.7l5.2,19.2h-2.6l-3.3-11.7l-5.4,12.1L6.1,93.2l-3.3,11.7H0.2l5.2-19.2l6.1,13.5L17.5,85.7z"
   id="path6" />
		<path
   class="st1"
   d="M34.2,85.7c5.4,0,9.6,4.3,9.6,9.7s-4.2,9.7-9.6,9.7s-9.6-4.3-9.6-9.7S28.8,85.7,34.2,85.7z M34.2,102.7    c4.1,0,6.9-3.3,6.9-7.3s-2.8-7.3-6.9-7.3s-6.9,3.3-6.9,7.3S30.1,102.7,34.2,102.7z"
   id="path8" />
		<path
   class="st1"
   d="M45.4,86h12v2.5h-4.7v16.4h-2.6V88.5h-4.7V86z"
   id="path10" />
		<path
   class="st1"
   d="M69.6,85.7c5.4,0,9.6,4.3,9.6,9.7s-4.2,9.7-9.6,9.7S60,101,60,95.5S64.2,85.7,69.6,85.7z M69.6,102.7    c4.1,0,6.9-3.3,6.9-7.3s-2.8-7.3-6.9-7.3s-6.9,3.3-6.9,7.3S65.4,102.7,69.6,102.7z"
   id="path12" />
		<path
   class="st1"
   d="M91.1,104.9h-2.6V86h4.7c4.2,0,6.3,2,6.3,5.2c0,2.5-1.6,4.1-3.9,4.8l4.9,8.8h-2.9l-4.8-8.5h-1.8V104.9z     M91.1,94h2.5c2.1,0,3.2-1,3.2-2.7s-1.2-2.7-3.2-2.7h-2.5V94z"
   id="path14" />
		<path
   class="st1"
   d="M103.7,86h10.9v2.5h-8.3v5.1h7.7v2.5h-7.7v6.3h8.3v2.5h-11V86z"
   id="path16" />
		<path
   class="st1"
   d="M121.3,104.9h-2.6V86h5.3c3.3,0,6.1,1.9,6.1,5.2s-2.8,5.2-6.1,5.2h-2.6V104.9z M121.3,94.1h3.1    c2,0,3-1.2,3-2.8s-1.1-2.8-3-2.8h-3.1V94.1z"
   id="path18" />
		<path
   class="st1"
   d="M147,98.6c0,4.6-3.2,6.6-6.6,6.6c-3.4,0-6.6-2-6.6-6.6V86h2.6v12.3c0,2.9,1.6,4.4,4,4.4s4-1.5,4-4.4V86h2.6    V98.6z"
   id="path20" />
		<path
   class="st1"
   d="M151.5,86h4.9c3.7,0,6,1.9,6,4.5c0,1.9-0.9,3.1-2.2,3.9c2,0.9,3.6,2.4,3.6,4.7c0,2.9-2.2,5.7-6.5,5.7h-5.8V86    z M154.1,93.6h2.7c2.1,0,3.1-1.2,3.1-2.6c0-1.4-1-2.6-3.1-2.6h-2.7V93.6z M154.1,102.4h3.1c2.4,0,3.7-1.2,3.7-3.1    c0-1.9-1.3-3.1-3.7-3.1h-3.1V102.4z"
   id="path22" />
		<path
   class="st1"
   d="M177.6,104.9h-10.2V86h2.6v16.4h7.6V104.9z"
   id="path24" />
		<path
   class="st1"
   d="M181.4,104.9V86h2.6v18.8H181.4z"
   id="path26" />
		<path
   class="st1"
   d="M188.5,104.9V86h2.6v8l7.4-8h3.1l-8.2,8.8l8.2,10h-3.2l-7.4-9v9H188.5z"
   id="path28" />
	</g>
</g>
<path
   style="fill:#ffffff;stroke-width:0.151745"
   d="m 88.61912,95.447648 v -9.408194 l 2.54173,0.003 c 2.976285,0.0035 4.360883,0.173211 5.438389,0.666509 1.756476,0.804141 2.637442,2.141855 2.756952,4.186327 0.121916,2.085621 -0.857071,3.677447 -2.846427,4.628272 -0.500704,0.239315 -0.910371,0.491594 -0.910371,0.56062 0,0.06903 0.94546,1.814817 2.101022,3.879534 1.155561,2.064714 2.215737,3.975954 2.355945,4.247204 l 0.25492,0.49317 -1.331662,-8.3e-4 -1.331667,-8.4e-4 -2.376038,-4.21009 -2.376038,-4.21009 -1.00029,-0.04487 -1.000289,-0.04487 v 4.33166 4.33167 H 89.757208 88.61912 Z m 6.965182,-1.821471 c 0.879106,-0.498732 1.229052,-1.172013 1.229052,-2.364647 0,-1.134368 -0.38029,-1.786042 -1.356872,-2.325167 -0.570369,-0.314874 -0.922268,-0.375625 -2.535857,-0.437786 l -1.873584,-0.07218 v 2.84301 2.843009 l 1.93475,-0.0537 c 1.727491,-0.04795 2.006283,-0.09429 2.602511,-0.432539 z"
   id="path306" /><path
   style="fill:#ffffff;stroke-width:0.151745"
   d="m 67.408928,104.77666 c -2.59241,-0.56302 -5.185441,-2.59806 -6.315569,-4.956544 -1.757113,-3.666946 -1.14917,-8.000738 1.527966,-10.892293 1.224286,-1.322342 2.354007,-2.069826 3.988058,-2.638714 1.088263,-0.378874 1.540295,-0.453118 2.813986,-0.462185 1.822148,-0.01297 2.77734,0.200528 4.442205,0.992892 2.335558,1.111569 4.353264,3.64035 4.960695,6.217216 0.293846,1.246568 0.292286,3.428687 -0.0034,4.686792 -0.806184,3.430766 -3.749161,6.338566 -7.142964,7.057596 -1.282351,0.27169 -3.006966,0.26976 -4.271026,-0.005 z m 5.14444,-2.67936 c 2.604016,-1.24244 3.957671,-3.541791 3.959397,-6.725525 0.0013,-2.381049 -0.786135,-4.251097 -2.381226,-5.655152 -3.353652,-2.952003 -8.775578,-1.871649 -10.684932,2.129042 -0.593177,1.242892 -0.76765,2.040974 -0.772184,3.532165 -0.0088,2.896648 1.426143,5.47806 3.676737,6.61428 1.236293,0.62414 1.80299,0.7333 3.54667,0.68319 1.396858,-0.0401 1.638478,-0.0927 2.655538,-0.578 z"
   id="path345" /><path
   style="fill:#ffffff;stroke-width:0.151745"
   d="M 50.227618,96.661608 V 88.467375 H 47.875569 45.52352 v -1.213961 -1.21396 h 5.918058 5.918058 v 1.21396 1.213961 h -2.352049 -2.352048 v 8.194233 8.194232 h -1.213961 -1.21396 z"
   id="path384" /><path
   style="fill:#ffffff;stroke-width:0.151745"
   d="m 32.043664,104.77489 c -3.332502,-0.72335 -6.275437,-3.65718 -7.072955,-7.051066 -0.297244,-1.264943 -0.300649,-3.475716 -0.0071,-4.634279 0.785868,-3.102013 3.131671,-5.727278 6.026857,-6.744854 5.082246,-1.786266 10.542457,0.915787 12.262108,6.068056 0.467556,1.40085 0.566264,3.559907 0.231539,5.064438 -1.154815,5.190675 -6.230703,8.428525 -11.440412,7.297705 z m 4.018523,-2.25515 c 2.317152,-0.61697 4.066405,-2.4102 4.816186,-4.937267 0.311258,-1.049069 0.317069,-3.158311 0.01193,-4.329823 -0.948851,-3.642893 -4.480194,-5.841952 -8.143832,-5.071377 -4.369347,0.919006 -6.693271,5.85885 -4.883279,10.380129 0.734441,1.834598 2.71206,3.566828 4.572949,4.005528 0.880537,0.20758 2.761123,0.1831 3.626049,-0.0472 z"
   id="path423" /><path
   style="fill:#ffffff;stroke-width:0.151745"
   d="m 11.112499,104.40061 c -0.165,-0.37557 -1.2724292,-2.90213 -2.4609545,-5.614571 C 6.2105437,93.215207 6.1450203,93.076986 6.0336486,93.263617 5.9891847,93.338127 5.2921392,95.754932 4.4846587,98.634294 3.6771783,101.51366 2.947069,104.09143 2.8621936,104.36267 L 2.707875,104.85584 H 1.4894475 c -0.9107089,0 -1.20084477,-0.0479 -1.148808,-0.18968 0.0382907,-0.10432 1.1893749,-4.3343 2.5579649,-9.399946 1.36859,-5.065646 2.5306847,-9.162763 2.5824326,-9.104704 0.051748,0.05806 1.4096289,3.024757 3.0175134,6.592663 1.6078846,3.567906 2.9653936,6.485513 3.0166866,6.483571 0.05129,-0.0019 1.390681,-2.937886 2.976417,-6.52432 1.585736,-3.586435 2.922173,-6.521113 2.96986,-6.521508 0.04769,-3.94e-4 1.198858,4.110074 2.558155,9.134375 1.359296,5.024299 2.505506,9.223849 2.547132,9.332319 0.05824,0.15178 -0.206828,0.19723 -1.150273,0.19723 h -1.225956 l -0.254048,-0.87253 c -0.139729,-0.4799 -0.875888,-3.07949 -1.635911,-5.776885 -0.760023,-2.697391 -1.441311,-4.903351 -1.513974,-4.902133 -0.09953,0.0017 -4.517763,9.656068 -5.251725,11.475678 -0.106366,0.2637 -0.16175,0.21396 -0.422415,-0.37936 z"
   id="path462" /><path
   style="fill:#ffffff;stroke-width:0.151745"
   d="m 103.64188,95.447648 v -9.408194 h 5.46282 5.46283 v 1.21396 1.213961 h -4.17299 -4.17299 v 2.579666 2.579666 h 3.8695 3.8695 v 1.213961 1.21396 h -3.8695 -3.8695 v 3.186647 3.186645 h 4.17299 4.17299 v 1.21396 1.21396 h -5.46283 -5.46282 z"
   id="path501" /><path
   style="fill:#ffffff;stroke-width:0.151745"
   d="m 118.81639,95.447648 v -9.408194 l 2.76935,8.79e-4 c 3.22953,10e-4 4.21108,0.132058 5.49706,0.733842 1.87873,0.879162 2.88486,2.422304 2.88486,4.424611 0,2.002307 -1.00613,3.545449 -2.88486,4.424611 -1.14926,0.537803 -2.26657,0.73269 -4.20723,0.733842 l -1.47952,8.79e-4 v 4.248862 4.24886 h -1.28983 -1.28983 z m 7.29061,-1.678615 c 0.97213,-0.531996 1.40435,-1.41686 1.31147,-2.684842 -0.0537,-0.733617 -0.16426,-1.073388 -0.48663,-1.496031 -0.69581,-0.912249 -1.35837,-1.11361 -3.67691,-1.117453 l -2.01062,-0.0033 v 2.902608 2.902608 l 2.09335,-0.06681 c 1.8601,-0.05936 2.16866,-0.108026 2.76934,-0.43675 z"
   id="path540" /><path
   style="fill:#ffffff;stroke-width:0.151745"
   d="m 138.75398,104.94292 c -0.51004,-0.11615 -1.21966,-0.3603 -1.57694,-0.54257 -0.92617,-0.47249 -2.0915,-1.61503 -2.53014,-2.48064 -0.73398,-1.44844 -0.80227,-2.23879 -0.80511,-9.317282 l -0.003,-6.562974 h 1.20413 1.20413 l 0.0535,6.790592 c 0.0463,5.874453 0.0874,6.876835 0.30459,7.429844 0.64392,1.63923 1.66086,2.34372 3.52437,2.44153 1.03686,0.0544 1.36211,0.0102 2.0257,-0.27524 0.85685,-0.36861 1.54709,-1.05016 1.9634,-1.93866 0.23643,-0.504599 0.26881,-1.287866 0.31029,-7.505729 l 0.0463,-6.942337 h 1.21247 1.21247 l -0.0436,7.169954 c -0.0432,7.110802 -0.0465,7.177192 -0.39773,8.047392 -0.67898,1.68215 -1.81605,2.77009 -3.5882,3.43314 -1.09745,0.41061 -2.93022,0.52323 -4.11701,0.25298 z"
   id="path579" /><path
   style="fill:#ffffff;stroke-width:0.151745"
   d="m 151.59332,95.371775 v -9.332321 l 2.61761,0.0011 c 4.12706,0.0018 5.68135,0.406287 7.00693,1.823442 1.60967,1.720869 1.39751,4.489457 -0.46072,6.01214 l -0.67895,0.556349 0.80309,0.438678 c 1.0458,0.571255 1.86958,1.378293 2.36968,2.321508 0.5727,1.080147 0.57145,2.806208 -0.003,4.047819 -0.75909,1.64092 -2.12193,2.74259 -3.99689,3.23095 -0.67309,0.17531 -1.72615,0.23261 -4.27543,0.23261 h -3.38239 z m 7.14987,6.901965 c 1.69783,-0.47161 2.59064,-2.14347 2.10645,-3.94452 -0.22112,-0.822528 -1.04788,-1.666495 -1.90454,-1.944177 -0.32952,-0.106812 -1.57219,-0.234881 -2.76149,-0.284597 l -2.16237,-0.09039 v 3.208935 3.208929 l 2.0865,-9.1e-4 c 1.14757,-4.5e-4 2.33352,-0.0695 2.63545,-0.15333 z m -0.21856,-8.963547 c 0.87763,-0.424854 1.30176,-1.05533 1.38497,-2.0588 0.0816,-0.983579 -0.14154,-1.574248 -0.81945,-2.169458 -0.69637,-0.611422 -1.36854,-0.764471 -3.36177,-0.765459 l -1.70714,-8.46e-4 v 2.655538 2.655539 h 1.92478 c 1.64104,0 2.02116,-0.04666 2.57861,-0.316514 z"
   id="path618" /><path
   style="fill:#ffffff;stroke-width:0.151745"
   d="m 167.52656,95.447648 v -9.408194 h 1.21396 1.21396 v 8.194233 8.194233 h 3.79362 3.79363 v 1.21396 1.21396 h -5.00759 -5.00758 z"
   id="path657" /><path
   style="fill:#ffffff;stroke-width:0.151745"
   d="m 181.4871,95.371775 v -9.332321 h 1.21396 1.21396 v 9.332321 9.332325 h -1.21396 -1.21396 z"
   id="path696" /><path
   style="fill:#ffffff;stroke-width:0.151745"
   d="m 188.61912,95.371775 v -9.332321 h 1.21148 1.21148 l 0.0404,4.043256 0.0404,4.043257 3.71776,-4.037456 3.71775,-4.037456 1.43444,-0.0058 1.43444,-0.0058 -0.53526,0.569044 c -0.6528,0.693995 -6.7184,7.236871 -7.23453,7.803783 l -0.36983,0.406211 3.83217,4.677249 c 2.1077,2.572488 3.93583,4.796748 4.06253,4.942798 0.21739,0.2506 0.14569,0.26515 -1.27267,0.25841 l -1.50303,-0.007 -3.64188,-4.46263 c -2.00304,-2.454453 -3.6931,-4.465652 -3.7557,-4.469335 -0.0626,-0.0037 -0.1138,2.00772 -0.1138,4.469785 v 4.47648 h -1.13809 -1.13809 z"
   id="path735" /></svg>
